<?xml version="1.0" encoding="UTF-8"?>
<svg id="Layer_1" xmlns="http://www.w3.org/2000/svg" version="1.1" viewBox="0 0 273.3 155.2">
  <!-- Generator: Adobe Illustrator 29.2.1, SVG Export Plug-In . SVG Version: 2.1.0 Build 116)  -->
  <defs>
    <style>
      .st0 {
        fill: none;
      }

      .st1 {
        fill: #0191a4;
      }
    </style>
  </defs>
  <path class="st0" d="M229,70.2c4,0,7.2-3.1,7.3-7,0-4-3.1-7.2-7-7.3-4,0-7.2,3.1-7.3,7,0,4,3.1,7.2,7,7.3ZM229.2,59.1c2.3,0,4.1,1.9,4.1,4.2,0,2.3-1.9,4.1-4.2,4.1-2.3,0-4.1-1.9-4.1-4.2,0-2.3,1.9-4.1,4.2-4.1Z"/>
  <path class="st0" d="M237.3,72.3c-11.5,6-24.4-1.6-21.7-13.8-49.9-5.5-116.6-.6-164.4,5.8,41.1,12,77.4,25.7,130.3,23.1,6.4-12.1,26-11.7,36.3-4.5,26.7-6.2,35.2-16.8,36.4-17.6-6.7-2.5-7.5,2.1-16.9,7ZM123.8,68.3c-2.3,0-4.2-1.7-4.2-4,0-2.3,1.7-4.2,4-4.2,2.3,0,4.2,1.7,4.2,4,0,2.3-1.7,4.2-4,4.2ZM140.3,67.8c-2.3,0-4.1-1.8-4.1-4.1s1.8-4.1,4.1-4.1,4.1,1.8,4.1,4.1c0,2.3-1.8,4.1-4.1,4.1ZM156.8,67.6c-2.3,0-4.1-1.9-4.1-4.2,0-2.3,1.9-4.1,4.2-4.1,2.3,0,4.1,1.9,4.1,4.2,0,2.3-1.9,4.1-4.2,4.1ZM173.3,67.8c-2.3,0-4.1-2-4-4.3,0-2.3,2-4.1,4.3-4,2.3,0,4.1,2,4,4.3,0,2.3-2,4.1-4.3,4ZM194.1,64.4c-.1,2.3-2.1,4-4.4,3.9-2.3-.1-4-2.1-3.9-4.4.1-2.3,2.1-4,4.4-3.9s4,2.1,3.9,4.4Z"/>
  <path class="st0" d="M184,87.3c4.7-.3,9.5-.7,14.5-1.2,6.8-.7,12.8-1.7,18.1-2.9-7.5-2.3-23.2-3.1-32.6,4.1Z"/>
  <path class="st1" d="M254.5,61.3c-66.5-28.6-148.8-10.7-208,.9-3.2-1-29.4-14.7-29.4-14.7l9.5,9.5,13.7,6.7-15.2,2.5-11.1,5.5,31.6-5.6c22.5,8.7,44.9,15.4,68.6,20.2,41.4,9,122.4,12.6,145.1-22.7l-4.8-2.2ZM229.2,55.9c4,0,7.1,3.3,7,7.3,0,4-3.3,7.1-7.3,7-4,0-7.1-3.3-7-7.3,0-4,3.3-7.1,7.3-7ZM198.6,86.1c-5,.5-9.8.9-14.5,1.2,9.4-7.2,25.1-6.5,32.6-4.1-5.3,1.2-11.3,2.2-18.1,2.9ZM217.8,82.9c-10.3-7.2-29.9-7.5-36.3,4.5-52.9,2.5-89.2-11.1-130.3-23.1,47.9-6.4,114.5-11.4,164.4-5.8-2.7,12.2,10.2,19.8,21.7,13.8,9.4-4.9,10.1-9.5,16.9-7-1.2.8-9.7,11.4-36.4,17.6Z"/>
  <circle cx="229.1" cy="63.3" r="4.1" transform="translate(-5.4 24.5) rotate(-6.1)"/>
  <g>
    <circle cx="156.8" cy="63.5" r="4.1" transform="translate(-6.1 109.2) rotate(-37.7)"/>
    <circle cx="140.3" cy="63.7" r="4.1"/>
    <circle cx="123.7" cy="64.1" r="4.1" transform="translate(12.1 147.6) rotate(-64.2)"/>
    <circle cx="173.4" cy="63.7" r="4.1" transform="translate(-10.7 48.2) rotate(-15.4)"/>
    <circle cx="190" cy="64.1" r="4.1" transform="translate(5.5 142.6) rotate(-41.7)"/>
  </g>
</svg>