<?xml version="1.0" encoding="UTF-8"?>
<svg id="Layer_1" xmlns="http://www.w3.org/2000/svg" version="1.1" viewBox="0 0 273.3 155.2">
  <!-- Generator: Adobe Illustrator 29.2.1, SVG Export Plug-In . SVG Version: 2.1.0 Build 116)  -->
  <defs>
    <style>
      .st0 {
        fill: #231f20;
      }

      .st1 {
        fill: none;
      }

      .st2 {
        fill: #0191a4;
      }
    </style>
  </defs>
  <g>
    <path class="st1" d="M229,70.2c4,0,7.2-3.1,7.3-7,0-4-3.1-7.2-7-7.3-4,0-7.2,3.1-7.3,7,0,4,3.1,7.2,7,7.3ZM229.2,59.1c2.3,0,4.1,1.9,4.1,4.2,0,2.3-1.9,4.1-4.2,4.1-2.3,0-4.1-1.9-4.1-4.2,0-2.3,1.9-4.1,4.2-4.1Z"/>
    <path class="st1" d="M237.3,72.3c-11.5,6-24.4-1.6-21.7-13.8-49.9-5.5-116.6-.6-164.4,5.8,41.1,12,77.4,25.7,130.3,23.1,6.4-12.1,26-11.7,36.3-4.5,26.7-6.2,35.2-16.8,36.4-17.6-6.7-2.5-7.5,2.1-16.9,7ZM123.8,68.3c-2.3,0-4.2-1.7-4.2-4,0-2.3,1.7-4.2,4-4.2,2.3,0,4.2,1.7,4.2,4,0,2.3-1.7,4.2-4,4.2ZM140.3,67.8c-2.3,0-4.1-1.8-4.1-4.1s1.8-4.1,4.1-4.1,4.1,1.8,4.1,4.1c0,2.3-1.8,4.1-4.1,4.1ZM156.8,67.6c-2.3,0-4.1-1.9-4.1-4.2,0-2.3,1.9-4.1,4.2-4.1,2.3,0,4.1,1.9,4.1,4.2,0,2.3-1.9,4.1-4.2,4.1ZM173.3,67.8c-2.3,0-4.1-2-4-4.3,0-2.3,2-4.1,4.3-4,2.3,0,4.1,2,4,4.3,0,2.3-2,4.1-4.3,4ZM194.1,64.4c-.1,2.3-2.1,4-4.4,3.9-2.3-.1-4-2.1-3.9-4.4.1-2.3,2.1-4,4.4-3.9s4,2.1,3.9,4.4Z"/>
    <path class="st1" d="M184,87.3c4.7-.3,9.5-.7,14.5-1.2,6.8-.7,12.8-1.7,18.1-2.9-7.5-2.3-23.2-3.1-32.6,4.1Z"/>
    <path class="st2" d="M254.5,61.3c-66.5-28.6-148.8-10.7-208,.9-3.2-1-29.4-14.7-29.4-14.7l9.5,9.5,13.7,6.7-15.2,2.5-11.1,5.5,31.6-5.6c22.5,8.7,44.9,15.4,68.6,20.2,41.4,9,122.4,12.6,145.1-22.7l-4.8-2.2ZM229.2,55.9c4,0,7.1,3.3,7,7.3,0,4-3.3,7.1-7.3,7-4,0-7.1-3.3-7-7.3,0-4,3.3-7.1,7.3-7ZM198.6,86.1c-5,.5-9.8.9-14.5,1.2,9.4-7.2,25.1-6.5,32.6-4.1-5.3,1.2-11.3,2.2-18.1,2.9ZM217.8,82.9c-10.3-7.2-29.9-7.5-36.3,4.5-52.9,2.5-89.2-11.1-130.3-23.1,47.9-6.4,114.5-11.4,164.4-5.8-2.7,12.2,10.2,19.8,21.7,13.8,9.4-4.9,10.1-9.5,16.9-7-1.2.8-9.7,11.4-36.4,17.6Z"/>
    <circle cx="229.1" cy="63.3" r="4.1" transform="translate(-5.4 24.5) rotate(-6.1)"/>
    <g>
      <circle cx="156.8" cy="63.5" r="4.1" transform="translate(-6.1 109.2) rotate(-37.7)"/>
      <circle cx="140.3" cy="63.7" r="4.1"/>
      <circle cx="123.7" cy="64.1" r="4.1" transform="translate(12.1 147.6) rotate(-64.2)"/>
      <circle cx="173.4" cy="63.7" r="4.1" transform="translate(-10.7 48.2) rotate(-15.4)"/>
      <circle cx="190" cy="64.1" r="4.1" transform="translate(5.5 142.6) rotate(-41.7)"/>
    </g>
  </g>
  <g>
    <path class="st0" d="M95.4,36.1c.5-.2,1.2-.4,2.2-.7,1-.2,1.8-.1,2.4.2.5.3,1,.9,1.2,1.7.2.8,0,1.5-.3,2-.4.7-1.3,1.2-2.3,1.4-.3,0-.6,0-.8,0l.7,3.1-1.4.3-1.7-8.1ZM97.6,39.7c.2,0,.5,0,.8,0,1.1-.2,1.6-.9,1.4-1.9-.2-.9-1-1.2-1.9-1-.4,0-.7.2-.9.3l.6,2.7Z"/>
    <path class="st0" d="M111.7,37.1c.5,2.7-.9,4.7-3.2,5.1-2.3.4-4.1-1.1-4.5-3.5-.4-2.6.9-4.7,3.2-5.1,2.4-.4,4.2,1.1,4.6,3.5ZM105.5,38.3c.3,1.7,1.4,2.9,2.9,2.6,1.5-.3,2.2-1.7,1.9-3.5-.3-1.6-1.4-2.9-2.9-2.6-1.5.3-2.1,1.8-1.9,3.5Z"/>
    <path class="st0" d="M116.4,40.7l-3.1-8.1,1.5-.2,1.3,3.7c.3,1,.7,2.1.9,2.8h0c0-.8,0-1.9.2-3l.4-3.9,1.6-.2,1.3,3.8c.3,1,.6,1.9.8,2.7h0c0-.9,0-1.9.2-2.9l.4-3.9,1.5-.2-1.1,8.6-1.5.2-1.4-4c-.3-1-.6-1.7-.8-2.5h0c0,.9,0,1.7-.2,2.7l-.4,4.3-1.6.2Z"/>
    <path class="st0" d="M131,35.3l-3.2.3.2,2.4,3.5-.4v1.3c.1,0-4.8.5-4.8.5l-.8-8.4,4.8-.5v1.3c.1,0-3.2.3-3.2.3l.2,2.1,3.2-.3v1.3Z"/>
    <path class="st0" d="M133.9,30.4c.5-.1,1.4-.3,2.3-.4,1.2,0,2,0,2.5.5.4.3.7.9.8,1.6,0,1.1-.6,1.9-1.3,2.2h0c.6.2.9.8,1.2,1.5.3,1,.6,2,.8,2.3h-1.5c-.1-.1-.4-.8-.7-1.8-.3-1.1-.7-1.4-1.6-1.4h-.8c0,0,.3,3.5.3,3.5h-1.4c0,.1-.6-8.2-.6-8.2ZM135.6,34h1c1-.2,1.6-.7,1.5-1.5,0-.9-.8-1.3-1.7-1.2-.5,0-.8.1-1,.2l.2,2.6Z"/>
    <path class="st0" d="M147.1,34.2l-3.2.2v2.4c.1,0,3.7-.2,3.7-.2v1.3c0,0-4.9.3-4.9.3l-.4-8.4,4.8-.2v1.3c0,0-3.3.2-3.3.2v2.1c.1,0,3.3-.2,3.3-.2v1.3Z"/>
    <path class="st0" d="M150.2,29.4c.7-.1,1.6-.2,2.5-.2,1.6,0,2.7.3,3.5,1,.8.7,1.3,1.6,1.3,3,0,1.4-.4,2.5-1.2,3.3-.8.8-2.1,1.3-3.8,1.3-.9,0-1.6,0-2.1,0l-.2-8.3ZM151.8,36.5c.2,0,.6,0,.9,0,2.1,0,3.2-1.3,3.2-3.3,0-1.8-1.2-2.9-3.1-2.8-.5,0-.9,0-1.1.1v5.9Z"/>
    <path class="st0" d="M164.3,29.2c.5,0,1.3-.2,2.2-.2,1.1,0,1.7.2,2.3.5.5.3.8.9.8,1.6,0,.8-.5,1.5-1.3,1.8h0c.8.3,1.6.9,1.5,2.1,0,.8-.3,1.4-.8,1.8-.6.5-1.5.7-3,.7-.8,0-1.5,0-1.8-.1v-8.3ZM165.6,36.4c.2,0,.5,0,.8,0,.9,0,1.8-.3,1.8-1.4,0-1-.8-1.4-1.8-1.4h-.8s0,2.7,0,2.7ZM165.7,32.5h.8c1.1,0,1.6-.5,1.6-1.1,0-.8-.6-1.1-1.5-1.2-.5,0-.7,0-.9,0v2.2Z"/>
    <path class="st0" d="M174.1,37.7v-3.5c.1,0-2.3-5-2.3-5h1.7c0,0,.9,2.3.9,2.3.3.6.4,1.1.7,1.6h0c.2-.5.5-1,.8-1.6l1.1-2.2h1.6c0,0-2.9,4.8-2.9,4.8v3.6c-.1,0-1.6,0-1.6,0Z"/>
  </g>
  <g>
    <path class="st2" d="M92.7,107.6c1.2,1.1,3.3,2.6,5.8,3.3,2,.5,3.2.1,3.5-1,.3-1-.5-1.9-2.9-3.4-3.4-2.1-5.9-4.9-4.8-9,1.1-4.2,5.5-6.3,11.1-4.8,2.9.8,4.8,1.9,6.2,3.1l-2.7,4.7c-.9-.7-2.5-2-5-2.6-1.8-.5-3-.1-3.2.9-.3,1.2.9,2,3.5,3.7,3.8,2.6,5.2,5.3,4.2,8.8-1,3.9-4.9,6.7-11.7,4.8-2.8-.8-5.4-2.3-6.6-3.5l2.7-5Z"/>
    <path class="st2" d="M119.5,114.9l-2.4,5.5-6.5-1.1,11-22.5,8.4,1.4,3.3,24.9-6.8-1.2-.6-6-6.4-1.1ZM125.8,111l-.5-4.4c-.2-1.4-.3-3.2-.5-4.6h0c-.6,1.3-1.2,3-1.8,4.3l-1.8,4,4.6.8Z"/>
    <path class="st2" d="M140.8,100.2c1.8-.1,4.5-.1,7.9.2,3.7.3,6.1,1.1,7.7,2.6,1.3,1.2,2,3,1.8,5.5-.3,3.2-2.9,5-4.5,5.4h0c1.4.9,2.1,2.6,2.5,4.6.5,2.5,1,6.1,1.3,7.1l-6.3-.6c-.3-.7-.7-2.5-1.2-5.6-.4-2.9-1.3-3.6-3.3-3.8h-1.1c0-.1-.8,8.8-.8,8.8l-6.2-.6,2.1-23.6ZM146,110.7l1.8.2c2.4.2,4-.7,4.1-2.5.2-1.8-1-2.8-3.1-3-1.4-.1-2-.1-2.4,0l-.5,5.5Z"/>
    <path class="st2" d="M164.3,102.2c2.2-.3,5-.5,7.8-.5,4.7,0,7.6.8,10,2.5,2.6,1.8,4.4,4.7,4.4,9.1,0,5-2,8-4.2,9.8-2.8,2.2-6.9,3.2-11.6,3.1-3.3,0-5.4-.2-6.6-.5l.2-23.5ZM170.5,120.9c.4,0,1,0,1.5,0,4.6.1,7.9-2.2,8-7.4,0-4.8-3.1-6.8-7.1-6.8-1.2,0-1.9,0-2.2.2v14Z"/>
    <path class="st2" d="M198.2,101.1l1.6,23.9-6.2.4-1.6-23.9,6.2-.4Z"/>
    <path class="st2" d="M208.1,124.5l-3.8-23.7,7.7-1.3,4.7,6.3c1.8,2.4,3.7,5.4,5.3,8.3h0c-1-3.5-1.5-6.3-2-9.6l-1-6.2,5.7-.9,3.8,23.7-6.8,1.1-5.3-7.2c-1.8-2.5-3.9-5.5-5.7-8.5h-.1c.7,3.6,1.3,7,1.9,10.6l1,6.4-5.7.9Z"/>
  </g>
</svg>